<?xml version="1.0" encoding="UTF-8" standalone="no"?>
<svg
   xmlns:dc="http://purl.org/dc/elements/1.1/"
   xmlns:cc="http://creativecommons.org/ns#"
   xmlns:rdf="http://www.w3.org/1999/02/22-rdf-syntax-ns#"
   xmlns:svg="http://www.w3.org/2000/svg"
   xmlns="http://www.w3.org/2000/svg"
   viewBox="0 0 4000 2466.6667"
   height="2466.6667"
   width="4000"
   xml:space="preserve"
   id="svg2"
   version="1.1"><metadata
     id="metadata8"><rdf:RDF><cc:Work
         rdf:about=""><dc:format>image/svg+xml</dc:format><dc:type
           rdf:resource="http://purl.org/dc/dcmitype/StillImage" /></cc:Work></rdf:RDF></metadata><defs
     id="defs6" /><g
     transform="matrix(1.3333333,0,0,-1.3333333,0,2466.6667)"
     id="g10"><g
       transform="scale(0.1)"
       id="g12"><g
         transform="scale(1.84049)"
         id="g14"><path
           id="path16"
           style="fill:#ffffff;fill-opacity:0;fill-rule:nonzero;stroke:none"
           d="M 16300,0 H 0 V 10051.7 H 16300 V 0" /></g><g
         transform="scale(1.74833)"
         id="g18"><path
           id="path20"
           style="fill:#100f0d;fill-opacity:1;fill-rule:nonzero;stroke:none"
           d="m 16187,4279.87 h -22.1 v 81.73 l 60.2,120.46 z M 14640.6,3369 c 0,-4.41 -3.7,-7.96 -8.1,-7.72 l -74.6,3.6 c -14.5,0.74 -27,-9.15 -30.3,-22.77 -0.4,-1.88 -2,-3.31 -4,-3.2 l -967.4,43.58 31,87.75 c 1.7,4.86 5.9,8.4 11,9.15 47.1,6.92 306.7,41.52 1042.4,85.85 z m -1730.7,1597.84 -4.9,53.87 h 30.9 v -58.3 h -21.1 c -2.6,0 -4.7,1.92 -4.9,4.43 z m -167.9,-4.43 h -73 v 58.3 h 82.8 l -4.9,-53.87 c -0.2,-2.51 -2.4,-4.43 -4.9,-4.43 z m -114.8,5.09 v 28.4 c 0,9.45 -3.7,18.25 -10,24.81 h 43.8 v -58.3 h -28.7 c -2.8,0 -5.1,2.28 -5.1,5.09 z m -224,28.4 v -28.4 c 0,-2.81 -2.2,-5.09 -5,-5.09 h -38.4 v 58.3 h 53.5 c -6.3,-6.56 -10.1,-15.36 -10.1,-24.81 z m -352.2,24.81 h 146.2 v -58.3 H 12051 Z m 0,56.22 c 0,1.88 1.5,3.4 3.4,3.4 h 142.8 v -51.65 H 12051 Z m 300.8,-56.22 v -58.3 h -146.7 v 58.3 z m -146.7,59.62 h 146.7 v -51.65 h -146.7 z m 154.7,0 h 108.6 v -26.77 c 0,-4.09 -2.4,-7.77 -6.2,-9.33 l -36.7,-15.1 c -0.3,-0.13 -0.6,-0.31 -0.9,-0.45 h -64.8 z m 301.2,0 v -51.65 h -55.2 c -0.2,0.14 -0.5,0.33 -0.8,0.45 l -36.7,15.1 c -3.8,1.56 -6.3,5.24 -6.3,9.33 v 26.77 z m 8,0 h 146.7 v -12.49 h -47.7 c -6.7,0 -12.3,-5.12 -12.9,-11.8 l -2.6,-27.36 h -83.5 z m 181,0 c 2.2,-4.29 4.4,-8.5 6.5,-12.49 h -32.9 v 12.49 z m 82.5,0 c 1.9,0 3.4,-1.52 3.4,-3.4 v -48.25 h -31.7 l -2.5,27.36 c -0.6,6.68 -6.2,11.8 -12.9,11.8 h -9.3 l -7.9,12.49 z M 9646.89,4962.41 h -96.49 v 59.03 h 113.82 l -10.07,-53.05 c -0.68,-3.47 -3.71,-5.98 -7.26,-5.98 z M 9341,5021.44 h 201.45 v -59.03 H 9341 Z m 0,58.16 h 201.45 v -50.2 H 9341 Z m 209.4,0 h 124.86 l -9.55,-50.2 H 9550.4 Z m -294.63,-487.55 h -107.7 v 50.79 h 126.46 l -5.03,-38.72 c -0.91,-6.92 -6.81,-12.07 -13.73,-12.07 z m -135.44,3.15 -11.1,26.42 c -3.09,7.33 -10.18,12.64 -18.07,12.24 -4.12,-0.17 -7.55,3.09 -7.55,7.21 v 1.77 h 56.45 v -50.79 h -15.04 c -2,0 -3.89,1.26 -4.69,3.15 z m -228.16,38.66 v 0 c -8.07,0 -15.27,-4.8 -18.42,-12.24 l -11.1,-26.42 c -0.8,-1.89 -2.68,-3.15 -4.74,-3.15 h -40.96 v 50.79 h 82.42 v -1.77 c 0,-3.95 -3.2,-7.21 -7.2,-7.21 z m -139.39,-38.66 -11.16,26.42 c -3.03,7.33 -10.12,12.64 -18.01,12.24 -4.12,-0.17 -7.55,3.09 -7.55,7.21 v 1.77 H 8809 v -50.79 h -51.53 c -2.06,0 -3.89,1.26 -4.69,3.15 z m -228.16,38.66 v 0 c -8.07,0 -15.27,-4.8 -18.42,-12.24 l -11.1,-26.42 c -0.8,-1.89 -2.69,-3.15 -4.74,-3.15 h -4.47 v 50.79 h 45.93 v -1.77 c 0,-3.95 -3.2,-7.21 -7.2,-7.21 z m -331.92,-29.34 -9.1,38.32 h 128.76 v -50.79 h -103.87 c -7.5,0 -14.08,5.15 -15.79,12.47 z m 119.66,92.15 v -45.82 h -130.64 l -10.93,45.82 z m 165.53,-53.83 v -50.79 h -157.53 v 50.79 z m -157.53,53.83 h 157.53 v -45.82 h -157.53 z m 165.53,0 h 45.93 v -45.82 h -45.93 z m 323.11,0 v -45.82 h -92.94 v 45.82 z m 7.95,0 h 82.42 v -45.82 h -82.42 z m 323.11,0 v -45.82 h -56.45 v 45.82 z m 8.01,0 h 133.56 l -6.01,-45.82 h -127.55 z m -1099.8,168.79 v 49.71 H 8118 v -50.38 c -1.32,0.25 -2.58,0.67 -3.89,0.67 z m -253.89,0 v 49.71 h 104.61 v -49.71 z m -75.22,11.96 c -2.52,10.77 -10.87,18.86 -21.28,21.37 -2.51,0.61 -4.17,3.05 -4.17,5.65 v 10.73 h 92.71 v -49.71 h -64.46 z m -82.71,21.37 c -10.41,-2.51 -18.82,-10.6 -21.33,-21.37 l -2.81,-11.96 h -33.86 v 49.71 h 62.18 v -10.73 c 0,-2.6 -1.66,-5.04 -4.18,-5.65 z m -99.52,-21.37 c -2.52,10.77 -10.93,18.86 -21.34,21.37 -2.51,0.61 -4.17,3.05 -4.17,5.65 v 10.73 h 59.03 v -49.71 h -30.72 z m -82.77,21.37 c -10.41,-2.51 -18.76,-10.6 -21.27,-21.37 l -2.81,-11.96 h -11.61 v 49.71 h 39.87 v -10.73 c 0,-2.6 -1.66,-5.04 -4.18,-5.65 z m 4.18,68.84 v -44.5 h -39.87 v 44.5 z m 112.11,0 v -44.5 h -59.03 v 44.5 z m 8,0 h 62.18 v -44.5 h -62.18 z m 207.97,0 v -44.5 h -92.71 v 44.5 z m 7.96,0 h 189.89 c 1.77,-3.51 3.49,-6.89 5.15,-10.07 h -79.51 c -6.06,0 -10.92,-4.88 -10.92,-10.91 v -23.52 h -104.61 z m 321.04,0 c 1.43,0 2.58,-1.14 2.58,-2.56 v -41.94 h -69.73 v 23.52 c 0,6.03 -4.86,10.91 -10.86,10.91 h -12.99 l -6.52,10.07 z M 6285.1,5544.11 h -26.94 l -12.24,41.57 h 50.68 l -4.63,-35.55 c -0.46,-3.44 -3.38,-6.02 -6.87,-6.02 z m -116.68,0 c 3.77,8.95 5.83,18.77 5.83,29.08 v 12.49 h 33.81 l 12.29,-41.57 z m -225.02,0 c -4.4,0 -7.72,4.09 -6.75,8.41 l 7.32,33.16 h 73.22 v -12.49 c 0,-10.31 2.06,-20.13 5.83,-29.08 z m -390.4,0 h -21.41 v 41.57 h 33.69 l -7.65,-37.79 c -0.44,-2.2 -2.38,-3.78 -4.63,-3.78 z m -21.41,95.55 c 0,1.11 0.89,2.01 2.01,2.01 h 43.02 c 0,-0.01 -0.01,-0.03 -0.02,-0.05 l -9.71,-47.96 h -35.3 z m 492.4,307.7 h 77.39 l 87.86,-297.71 h -14.99 v 20.49 c 0,41.77 -33.86,75.62 -75.61,75.62 h -5.84 c -41.75,0 -75.61,-33.85 -75.61,-75.62 v -20.49 h -59.03 z m -365.49,0 h 239.43 l -32.54,-147.13 z m -69.76,36.41 v 49.82 h 64.42 l -13.6,-49.82 z m 0,106.49 c 0,0.94 0.77,1.71 1.71,1.71 h 66.81 v -43.38 l -1.92,-7.02 h -66.6 z m 87.09,1.71 v -19.81 c 0,-3.02 -1.98,-5.65 -4.86,-6.52 -2.12,-0.64 -4,-1.75 -5.74,-3.05 v 29.38 z m 90.03,0 v -50.4 h -13.55 l -3.04,11.21 c -1.71,6.29 -6.57,11.04 -12.58,12.86 -2.86,0.87 -4.86,3.5 -4.86,6.52 v 19.81 z m 0,-99.99 -11.38,41.61 h 11.38 z m 108.62,41.61 v -49.82 h -100.67 v 49.82 z m -100.67,58.38 h 100.67 v -50.4 h -100.67 z m 143.23,-58.38 -11.04,-49.82 h -23.57 v 49.82 z m -34.61,58.38 h 47.48 l -11.16,-50.4 h -36.32 z m 160.61,-58.38 h 29.8 v -49.82 H 6032 Z m 29.8,7.98 h -28.03 l 11.16,50.4 h 15.16 c 0.91,0 1.71,-0.77 1.71,-1.71 z m 25.45,241.78 h 0.35 v -299.58 h -17.85 v 106.49 c 0,5.34 -4.34,9.69 -9.66,9.69 h -13.39 z m -365.32,0 h 239.26 l -32.49,-147.03 z m -146.36,34.9 v 52.36 h 97.12 l -14.29,-52.36 z m 0,107.25 c 0,0.94 0.77,1.7 1.7,1.7 h 98.09 v -47.17 c -0.07,-0.23 -0.21,-0.42 -0.27,-0.65 l -0.22,-0.79 h -99.3 z m 116.95,1.7 v -28.44 c 0,-3.02 -1.98,-5.65 -4.87,-6.52 -1.52,-0.46 -2.97,-1.12 -4.31,-1.93 v 36.89 z m 135.86,0 v -48.61 h -62.23 l -0.23,0.79 c -1.72,6.3 -6.52,11.04 -12.53,12.86 -2.92,0.87 -4.86,3.5 -4.86,6.52 v 28.44 z m 0,-108.95 h -45.76 l -14.3,52.36 h 60.06 z m 152.14,52.36 -11.61,-52.36 h -132.53 v 52.36 z m -144.14,56.59 h 145.06 v -48.61 h -145.06 z m 156.61,0 -3.6,-16.35 v 16.35 z m 139.79,0 v -48.24 c 0,-0.13 0.06,-0.24 0.12,-0.37 h -24.6 l 10.76,48.61 z m 21.45,-76.89 c -4.74,-0.45 -8.69,-3.78 -9.78,-8.5 l -2,-9.35 v 38.15 h 9.15 c 1.55,-0.87 2.63,-2.46 2.63,-4.37 z m -59.25,-32.06 11.55,52.36 h 27.91 v -52.36 z m -88.83,-724.59 h -71.44 l 10.64,48.01 h 60.8 z m 157.06,48.01 h 17.33 l 14.13,-48.01 h -31.46 z m 129.61,0 -6.23,-48.01 h -54.11 l -14.13,48.01 z m -1213.78,-1347.62 -127.47,8.13 v 57.36 c 65.5,-4.34 116.28,-7.89 147.74,-10.12 l -9.49,-47.13 c -1.02,-5.03 -5.62,-8.58 -10.78,-8.24 z m -188.53,69.44 c 18.46,-1.14 36.35,-2.35 53.09,-3.43 v -57.37 l -53.09,3.37 z m -246.51,-41.7 v 56.63 c 37.31,-2.12 73.25,-4.23 107.63,-6.29 v -57.2 z m -519.89,39.41 -95.25,33.86 v 11.27 c 48.52,-1.54 97.26,-3.26 145.8,-5.2 v -49.42 l -6.12,0.4 c -15.16,0.97 -30.12,4.06 -44.43,9.09 z m -583.38,121.66 c 54.66,-1.71 112.47,-3.6 172.58,-5.6 v -37.64 l -172.58,9.44 z m -292.79,-17.73 -158.16,8.69 v 20.08 c 0,0.63 0.32,1.03 0.51,1.2 0.23,0.23 0.82,0.4 1.2,0.52 25.06,-0.63 79.68,-2.06 155.7,-4.12 0.36,-0.57 0.75,-1.09 0.75,-1.83 z m 619.15,6.81 v -40.78 l -145.81,8 v 37.81 c 47.41,-1.6 96.13,-3.26 145.81,-5.03 z m 153.79,-74.07 -26.66,9.49 c 8.9,-0.28 17.74,-0.51 26.66,-0.8 z m 0,68.35 v -51.65 c -17.1,0.51 -34.08,0.97 -51.09,1.48 l -11.68,4.12 c -13.19,4.69 -26.98,7.44 -40.96,8.24 l -42.08,2.29 v 40.95 c 47.92,-1.71 96.65,-3.55 145.81,-5.43 z m 7.98,-0.29 c 48.35,-1.89 97.08,-3.83 145.8,-5.83 v -50.96 c -48.54,1.88 -97.28,3.6 -145.8,5.14 z m 299.59,-71.32 v -52.68 l -145.81,9.26 v 49.65 c 49,-1.94 97.74,-4.06 145.81,-6.23 z m -145.81,65.14 c 48.76,-2 97.49,-4.11 145.81,-6.29 v -50.9 c -48.07,2.23 -96.81,4.29 -145.81,6.23 z m 299.6,-72.64 v -55.02 l -145.81,9.32 v 52.85 c 49.52,-2.28 98.28,-4.69 145.81,-7.15 z m -145.81,66.01 c 49.18,-2.23 97.93,-4.52 145.81,-6.86 v -51.14 c -47.53,2.46 -96.29,4.81 -145.81,7.09 z m 299.6,-74.3 v -56.51 l -145.82,9.26 v 55.14 c 50.23,-2.57 99.03,-5.2 145.82,-7.89 z m -145.82,67.04 c 49.72,-2.46 98.46,-5.04 145.82,-7.67 v -51.36 c -46.8,2.63 -95.59,5.26 -145.82,7.89 z m 153.79,-8.13 c 50.43,-2.8 99.22,-5.72 145.81,-8.69 v -19.73 l -24.92,0.62 c -7.27,0.18 -13.26,-5.66 -13.26,-12.92 v -16.87 c -34.38,2 -70.32,4.11 -107.63,6.23 z m 191.79,-11.72 c 3.42,-6.69 6.58,-12.87 9.31,-18.19 l -47.31,1.26 v 19.44 c 12.84,-0.8 25.51,-1.65 38,-2.51 z m 107.81,-7.78 v -50.16 c -16.74,1.08 -34.63,2.23 -53.09,3.43 v 22.53 c 0,7.04 -5.58,12.76 -12.59,12.93 l -2.6,0.06 -10.64,16.99 c 27.28,-1.89 53.69,-3.84 78.92,-5.78 z m 7.97,-0.63 c 59.87,-4.75 113.26,-9.61 158.51,-14.7 l -9.19,-45.59 c -31.46,2.23 -82.83,5.84 -149.32,10.24 z m -4043.125,176 v 238.51 L 1096.31,4583.87 Z M 5879.69,6688.11 h 182.06 l -24.72,-111.87 z m -161.47,34.9 v 51.76 h 33.57 v -51.76 z m 0,107.25 c 0,0.95 0.76,1.71 1.71,1.71 h 31.86 v -49.23 h -33.57 z m 244.8,1.71 v -49.23 h -59.48 v 49.23 z m -59.48,-57.2 h 59.48 v -51.76 h -59.48 z m 177.37,0 -11.44,-51.76 h -98.44 v 51.76 z m -109.88,57.2 h 122.57 l -10.92,-49.23 h -111.65 z m 270.72,100.15 h 43.52 v -11.82 c 0,-5.08 4.12,-9.21 9.21,-9.21 h 15.9 l -8.18,-71.14 h -80.82 z m 120.68,-100.15 c 0.98,0 1.72,-0.76 1.72,-1.71 v -47.52 h -51.25 l 5.6,49.23 z m -56.39,-108.96 5.95,51.76 h 52.16 v -51.76 z m -38.38,59.73 v 49.23 h 33.63 l -5.61,-49.23 z m 0,-59.73 v 51.76 h 27.11 l -5.95,-51.76 z m -60.69,51.76 h 52.74 v -51.76 h -64.18 z m 52.74,7.97 h -50.97 l 10.87,49.23 h 40.1 z M 16294.4,4580.44 h -5.9 c -3.1,0 -5.6,-2.52 -5.6,-5.6 v -21.28 c 0,-2.41 -1.9,-4.35 -4.3,-4.35 h -23.4 l 30,159.3 h 8.2 c 3.1,0 5.5,2.86 4.8,5.89 l -9,41.29 c -0.6,3.04 -3.3,5.21 -6.4,5.21 h -10.8 c -3.1,0 -5.8,-2.17 -6.4,-5.21 l -9,-41.29 c -0.7,-3.03 1.6,-5.89 4.7,-5.89 h 6.5 l -29.9,-158.5 c -0.8,-4.34 -2.2,-8.58 -4.2,-12.58 l -73.9,-147.8 c -2.2,1.72 -4.7,2.86 -7.7,2.86 h -71.2 l 66.9,110.5 c 1.7,2.86 0.8,6.53 -2.1,8.24 l -4.3,2.63 c -2.8,1.72 -6.5,0.8 -8.2,-2 l -72.3,-119.37 h -103.2 c -7,0 -12.8,-5.72 -12.8,-12.81 v -99.81 h -36.6 v 99.81 c 0,7.09 -5.8,12.81 -12.9,12.81 h -194.3 c -7.1,0 -12.8,-5.72 -12.8,-12.81 v -99.81 h -36.7 v 99.81 c 0,7.09 -5.7,12.81 -12.7,12.81 h -194.5 c -7,0 -12.7,-5.72 -12.7,-12.81 v -99.81 h -36.7 v 99.81 c 0,7.09 -5.8,12.81 -12.8,12.81 h -194.4 c -7,0 -12.8,-5.72 -12.8,-12.81 v -99.81 h -36.6 v 99.81 c 0,7.09 -5.8,12.81 -12.8,12.81 h -194.4 c -7.1,0 -12.8,-5.72 -12.8,-12.81 v -99.81 h -36.7 v 99.81 c 0,7.09 -5.7,12.81 -12.8,12.81 h -194.3 c -7.1,0 -12.9,-5.72 -12.9,-12.81 v -99.81 h -36.6 v 99.81 c 0,7.09 -5.7,12.81 -12.8,12.81 h -194.4 c -7.1,0 -12.8,-5.72 -12.8,-12.81 v -99.81 h -36.7 v 99.81 c 0,7.09 -5.7,12.81 -12.8,12.81 h -194.3 c -7.1,0 -12.8,-5.72 -12.8,-12.81 v -99.81 h -36.7 v 99.81 c 0,7.09 -5.7,12.81 -12.8,12.81 h -194.4 c -7.1,0 -12.8,-5.72 -12.8,-12.81 v -99.81 h -36.7 v 99.81 c 0,7.09 -5.7,12.81 -12.8,12.81 H 13648 c -7.1,0 -12.8,-5.72 -12.8,-12.81 v -99.81 h -36.7 v 99.81 c 0,7.09 -5.7,12.81 -12.8,12.81 h -194.4 c -7,0 -12.8,-5.72 -12.8,-12.81 v -99.81 h -36.6 v 99.81 c 0,7.09 -5.8,12.81 -12.8,12.81 h -194.4 c -7.1,0 -12.8,-5.72 -12.8,-12.81 v -99.81 h -19.2 c -12,0 -22.2,8.69 -24.2,20.59 l -26.9,163.24 c -0.9,5.83 0.8,11.78 4.8,16.13 l 46.4,50.11 c 7.2,7.77 5.6,20.07 -3.2,25.79 l -61.7,39.58 c -5.7,3.61 -9.5,9.5 -10.6,16.13 l -2.4,14.24 c -0.7,4.29 -0.2,8.76 1.5,12.82 l 73.2,180.63 c 2.5,6.23 -0.6,13.38 -7,15.78 l -56.2,21.17 c -6.3,2.34 -13.3,-0.92 -15.5,-7.27 l -3.8,-10.41 c -2.1,-6.06 -8.6,-9.32 -14.7,-7.55 l -6.6,1.95 c -3.3,0.97 -5.6,3.66 -6.1,6.92 l -4.1,24.58 66.4,5.89 c 4.7,0.42 6.8,6.23 3.3,9.49 l -18.3,17.22 c -5.9,5.62 -15.4,5.03 -20.6,-1.27 l -3.3,-3.93 c -2.8,-3.49 -7.1,-5.52 -11.7,-5.52 h -19.4 l -10.8,65.58 c -1,6.14 -6.3,10.65 -12.6,10.65 h -14.7 v 114.52 c 0,6.28 -5.1,11.38 -11.4,11.38 h -65.9 l -68.9,109.85 c -2.8,4.83 -10.4,0.39 -7.7,-4.47 0,0 30.6,-57.94 55.7,-105.38 H 12562 v 56.67 c 0,3.31 2.3,6.21 5.5,7.08 l 95.1,25.85 c 9.7,2.66 15.5,12.73 12.8,22.49 l -31.2,114.8 c -2.6,9.76 -12.7,15.53 -22.5,12.88 l -251.8,-68.45 c -9.8,-2.65 -15.6,-12.72 -12.9,-22.49 l 31.2,-114.79 c 2.7,-9.77 12.8,-15.54 22.5,-12.88 l 50.9,13.84 c 3.5,0.94 6.8,-1.64 6.8,-5.2 v -29.8 h -414 c -6.3,0 -11.4,-5.1 -11.4,-11.38 v -114.52 h -15.9 c -3.5,0 -6.3,2.79 -6.3,6.24 v 125.85 c 0,3.61 -3,6.55 -6.6,6.55 h -31.2 c -3.3,0 -6.2,2.33 -6.7,5.54 l -20.9,109.46 c -1.7,9.21 -9.7,15.88 -19.1,15.88 h -717 l 27,124.41 c 9.4,43.18 -5.5,89.28 -41.2,115.42 -18.7,13.79 -42,21.93 -67,21.93 -43.9,0 -82,-24.93 -100.8,-61.4 -11.3,-21.82 -13.6,-47.21 -8.9,-71.32 l 24.9,-129.04 h -184 c -7.4,0 -13.8,5.09 -15.4,12.27 l -83.4,370.29 c -1.9,8.45 -9.4,14.45 -18,14.45 h -414 c -8.7,0 -16.2,-6 -18.1,-14.45 l -83.3,-370.29 c -1.7,-7.18 -8.1,-12.27 -15.4,-12.27 h -274.18 v 22.66 c 0,5.15 -4.17,9.33 -9.32,9.33 h -16.59 c -2.17,0 -3.83,1.95 -3.43,4.09 l 157.82,899.64 c 0.5,2.68 -1.3,5.23 -4,5.7 l -10.5,1.85 c -2.7,0.47 -5.2,-1.32 -5.6,-4 l -158.77,-904.4 c -0.29,-1.66 -1.72,-2.88 -3.43,-2.88 h -14.42 c -5.14,0 -9.32,-4.18 -9.32,-9.33 v -22.66 h -149.63 c -9.38,0 -17.39,-6.67 -19.16,-15.88 l -24.37,-128.47 h -126.4 v 6.44 c 0,2.2 -1.77,3.98 -4.01,3.98 -2.17,0 -3.94,-1.78 -3.94,-3.98 v -6.44 H 9341 v 6.44 c 0,2.2 -1.78,3.98 -4.01,3.98 -2.17,0 -4,-1.78 -4,-3.98 v -131.61 h -6.81 c -5.6,0 -10.35,-4.15 -11.04,-9.69 l -32.48,-248.1 h -199.05 v 29.97 h 4 c 6.58,0 11.96,5.38 11.96,12.01 v 73.9 c 0,6.64 -5.38,12.01 -11.96,12.01 h -6.92 c -2.29,0 -4.12,1.83 -4.12,4.12 v 127.11 c 0,4.35 -3.54,7.88 -7.89,7.88 h -57.66 c -4.34,0 -7.89,-3.53 -7.89,-7.88 v -127 c 0,-2.34 -1.89,-4.23 -4.23,-4.23 h -14.81 c -2.35,0 -4.24,1.89 -4.24,4.23 v 127 c 0,4.35 -3.54,7.88 -7.89,7.88 h -57.66 c -4.34,0 -7.89,-3.53 -7.89,-7.88 v -127.11 c 0,-2.29 -1.83,-4.12 -4.12,-4.12 h -6.92 c -6.63,0 -11.95,-5.37 -11.95,-12.01 v -73.9 c 0,-6.63 5.32,-12.01 11.95,-12.01 h 4 v -29.97 h -183.31 v 29.97 h 3.94 c 6.64,0 12.02,5.38 12.02,12.01 v 73.9 c 0,6.64 -5.38,12.01 -12.02,12.01 h -6.86 c -2.29,0 -4.12,1.83 -4.12,4.12 v 127.11 c 0,4.35 -3.55,7.88 -7.89,7.88 h -57.71 c -4.35,0 -7.84,-3.53 -7.84,-7.88 v -127 c 0,-2.34 -1.95,-4.23 -4.23,-4.23 h -14.82 c -2.34,0 -4.23,1.89 -4.23,4.23 v 127 c 0,4.35 -3.55,7.88 -7.89,7.88 h -57.66 c -4.34,0 -7.89,-3.53 -7.89,-7.88 v -127.11 c 0,-2.29 -1.83,-4.12 -4.12,-4.12 h -6.92 c -6.64,0 -12.01,-5.37 -12.01,-12.01 v -73.9 c 0,-6.63 5.37,-12.01 12.01,-12.01 h 4 v -29.97 H 8168.9 l -34.37,144.65 c -1.2,5.2 -4.41,9.44 -8.58,12.3 v 103.5 c 0,5.81 -4.69,10.53 -10.53,10.53 H 8012.7 l -82.94,127.69 c -4.35,6.73 -14.76,0.66 -11.15,-6.43 0.63,-1.09 36.38,-71.65 61.6,-121.26 h -286.5 v 25.47 c 0,2.23 1.31,4.13 3.26,5.23 2.46,1.39 4.11,3.98 4.11,7.01 v 189.05 c 0,4.55 -3.65,8.24 -8.23,8.24 h -51.36 c -4.58,0 -8.24,-3.69 -8.24,-8.24 v -189.05 c 0,-3.03 1.66,-5.62 4.06,-7.01 1.94,-1.1 3.32,-3 3.32,-5.23 v -25.47 h -129.21 v 25.47 c 0,2.23 1.37,4.13 3.31,5.23 2.41,1.39 4.07,3.98 4.07,7.01 v 189.05 c 0,4.55 -3.66,8.24 -8.24,8.24 h -51.36 c -4.58,0 -8.24,-3.69 -8.24,-8.24 v -189.05 c 0,-3.03 1.66,-5.62 4.12,-7.01 1.94,-1.1 3.26,-3 3.26,-5.23 v -25.47 h -39.87 v 2.38 c 0,4.78 -3.89,8.67 -8.63,8.67 h -97.01 c -5.49,0 -10.24,3.9 -11.27,9.31 l -139.05,727.51 h 40.61 c 4.06,0 7.9,1.87 10.36,5.06 l 287.3,368.4 c 1.94,2.49 1.49,6.07 -1.03,8.01 l -6.23,4.89 c -2.52,1.93 -6.07,1.49 -8.01,-0.99 L 7204.04,5747.9 c -2.46,-3.19 -6.29,-5.06 -10.36,-5.06 h -34.89 l -33.63,175.85 c -1.03,5.42 -5.77,9.34 -11.26,9.34 h -223.94 c -5.26,0 -9.83,-3.59 -11.15,-8.71 l -44.5,-178.21 c -1.03,-4.1 -4.74,-6.98 -8.98,-6.98 h -20.42 l 24.88,114.72 c 9.39,43.2 -5.6,89.32 -41.23,115.46 -18.77,13.76 -41.93,21.89 -66.98,21.89 -43.93,0 -82.02,-24.95 -100.84,-61.45 -11.27,-21.81 -13.56,-47.18 -8.87,-71.28 l 23.05,-119.34 h -20.76 c -6.58,0 -11.9,-5.32 -11.9,-11.88 v -165.18 c 0,-7.16 -5.77,-12.96 -12.92,-12.96 h -54.17 c -5.49,0 -9.95,4.45 -9.95,9.93 v 17.7 c 0,5.62 -4.58,10.17 -10.18,10.17 h -108.56 c -5.67,0 -10.19,4.56 -10.19,10.19 v 70.5 c 0,4.48 -2.97,8.43 -7.26,9.73 l -66.58,20.25 c -6.01,1.83 -12.24,-2.19 -13.04,-8.43 l -4.52,-34.5 h -77.85 l -87.85,297.71 h 5.09 c 3.15,0 5.72,2.56 5.72,5.72 v 24.97 c 0,3.16 -2.57,5.72 -5.72,5.72 h -4.92 v 299.58 h 148.2 c 3.15,0 5.72,2.55 5.72,5.69 v 23.51 c 0,3.15 -2.57,5.7 -5.72,5.7 h -0.46 l -5.14,23.56 c -1.03,4.72 -5.04,8.05 -9.79,8.5 v 15.93 c 0,2.81 2.29,5.09 5.09,5.09 h 8.7 c 4.23,0 7.66,3.42 7.66,7.63 v 69.08 c 0,4.22 -3.43,7.64 -7.66,7.64 h -134.47 c -4.23,0 -7.67,-3.42 -7.67,-7.64 v -12.86 h -11.95 l 55.94,252.93 h 189.89 c 3.15,0 5.72,2.55 5.72,5.7 v 23.51 c 0,3.14 -2.57,5.69 -5.72,5.69 h -5.54 v 107.25 c 0,5.34 -4.35,9.69 -9.73,9.69 h -43.01 l 8.12,71.14 h 20.77 c 5.03,0 9.2,4.13 9.2,9.21 v 42.18 c 0,5.09 -4.17,9.21 -9.2,9.21 h -53.83 c -5.09,0 -9.21,-4.12 -9.21,-9.21 v -11.82 h -39.41 l 8.53,38.48 h 92.43 c 3.2,0 5.83,2.6 5.83,5.82 v 14.11 c 0,4.25 3.43,7.7 7.67,7.7 h 9.78 c 3.2,0 5.83,2.61 5.83,5.82 v 31.02 c 0,3.21 -2.63,5.82 -5.83,5.82 h -13.5 l 54.96,224.44 h 22.43 c 5.43,0 9.55,4.92 8.52,10.25 l -7.95,42.22 c -0.8,4.13 -4.18,7.1 -8.24,7.66 l 27.23,111.2 c 0.57,2.35 -1.2,4.63 -3.66,4.63 h -7.32 v 7.27 h 47.99 c 1.31,0 2.4,1.09 2.4,2.43 v 15.02 c 0,1.34 -1.09,2.43 -2.4,2.43 h -54.06 c -1.31,0 -2.4,-1.09 -2.4,-2.43 v -7.03 h -9.78 v 7.72 c 0,2.23 -1.77,4.04 -4,4.04 h -55.83 c -2.91,0 -5.26,2.34 -5.26,5.24 v 89.04 c 0,2.08 -1.66,3.76 -3.72,3.76 h -16.7 c -2.06,0 -3.72,-1.68 -3.72,-3.76 v -141.3 c 0,-3.35 2.69,-6.06 6.07,-6.06 h 55.65 c 1.49,0 2.52,-1.37 2.17,-2.79 l -21.85,-89.19 h -10.92 c -4.06,0 -7.67,-2.49 -9.1,-6.26 l -15.95,-42.38 c -2.18,-5.67 2,-11.71 8.06,-11.71 h 13.16 l -54.97,-224.44 h -86.37 v 69.26 c 0,5.12 -4.17,9.27 -9.27,9.27 h -54.68 c -5.09,0 -9.26,-4.15 -9.26,-9.27 v -69.26 H 6119 v 50.66 h 8.12 c 3.43,0 6.01,2.97 5.61,6.34 l -9.38,72.79 c -0.69,5.47 -5.32,9.57 -10.87,9.57 h -25.28 c -5.55,0 -10.18,-4.1 -10.87,-9.57 l -9.38,-72.79 c -0.4,-3.37 2.23,-6.34 5.61,-6.34 h 8.12 v -50.66 h -81.91 c -3.2,0 -5.83,-2.61 -5.83,-5.82 v -31.02 c 0,-3.21 2.63,-5.82 5.83,-5.82 h 9.78 c 4.23,0 7.67,-3.45 7.67,-7.7 v -14.11 c 0,-3.22 2.63,-5.82 5.83,-5.82 h 106.27 l -8.52,-38.48 h -34.72 v 11.82 c 0,5.09 -4.12,9.21 -9.21,9.21 h -53.82 c -5.09,0 -9.21,-4.12 -9.21,-9.21 v -42.18 c 0,-5.08 4.12,-9.21 9.21,-9.21 h 53.82 c 5.09,0 9.21,4.13 9.21,9.21 v 11.82 h 30.66 l -20.42,-92.17 h -191.78 v 19.12 c 0,41.54 -32.03,77.77 -73.56,79.02 -42.95,1.28 -78.19,-33.16 -78.19,-75.84 v -22.3 h -31.86 c -5.35,0 -9.69,-4.35 -9.69,-9.69 v -107.25 h -0.98 c -3.15,0 -5.7,-2.55 -5.7,-5.69 v -29.21 h 136.83 l 191.27,-136.02 -25.85,-116.91 h -246.24 v 1.95 c 0,3.82 3.09,6.91 6.86,6.91 h 70.24 c 12.13,0 19.91,12.91 14.19,23.61 l -20.88,39.35 c -7.49,14.06 -22.08,22.84 -37.98,22.84 h -120.88 c -15.9,0 -30.52,-8.78 -37.97,-22.84 l -20.9,-39.35 c -5.69,-10.7 2.07,-23.61 14.19,-23.61 h 70.22 c 3.81,0 6.9,-3.09 6.9,-6.91 v -1.95 h -115.25 c -5.33,0 -9.68,-4.34 -9.68,-9.68 v -107.25 h -3.16 c -3.15,0 -5.7,-2.55 -5.7,-5.7 v -23.39 c 0,-3.21 2.6,-5.81 5.82,-5.81 h 118.06 l 240.71,-171.19 -2.68,-12.21 h -199.85 v 10.58 c 0,3.82 3.09,6.91 6.92,6.91 h 70.18 c 12.13,0 19.91,12.91 14.19,23.62 l -20.88,39.35 c -7.44,14.05 -22.08,22.83 -37.98,22.83 H 5643.4 c -15.91,0 -30.52,-8.78 -37.98,-22.83 l -20.9,-39.35 c -5.69,-10.71 2.07,-23.62 14.19,-23.62 h 70.22 c 3.81,0 6.9,-3.09 6.9,-6.91 v -10.58 h -85.38 c -5.34,0 -9.68,-4.35 -9.68,-9.69 v -106.49 c -3.16,0 -5.72,-2.56 -5.72,-5.72 v -24.97 c 0,-3.16 2.56,-5.72 5.72,-5.72 h 38.41 l 240.89,-171.29 -27.92,-126.29 h -151.74 c -3.67,0 -6.66,2.99 -6.66,6.66 v 27.27 c 0,2.41 1.95,4.36 4.37,4.36 h 23.62 c 2.48,0 4.49,2.02 4.49,4.49 v 18.66 c 0,5.74 -2.92,10.81 -7.35,13.79 -1.64,1.1 -2.83,2.76 -2.83,4.74 v 17.1 c 0,6.09 -4.94,11.03 -11.03,11.03 h -56.96 c -6.09,0 -11.03,-4.94 -11.03,-11.03 v -17.1 c 0,-1.98 -1.18,-3.64 -2.83,-4.74 -4.43,-2.98 -7.35,-8.05 -7.35,-13.79 v -18.66 c 0,-2.47 2.01,-4.49 4.49,-4.49 h 23.63 c 2.41,0 4.36,-1.95 4.36,-4.36 v -27.27 c 0,-3.67 -2.98,-6.66 -6.66,-6.66 h -46.09 c -0.26,0 -0.49,-0.11 -0.74,-0.13 h -52.24 c -5.51,0 -9.99,-4.48 -9.99,-9.99 v -95.55 h -1.26 c -5.38,0 -10,-3.85 -10.97,-9.15 l -71.01,-387.3 c -1.14,-6.22 -6.56,-10.74 -12.89,-10.74 h -201.42 c -8.49,0 -14.27,-8.44 -11.25,-16.37 37.97,-99.83 0.61,-249.28 0.61,-249.28 l -23.13,-114.89 h -32.31 v 14.07 c 0,1.49 1.18,2.69 2.64,2.69 h 11.75 c 1.45,0 2.64,1.14 2.64,2.63 v 11.33 c 0,1.43 -1.19,2.63 -2.64,2.63 h -41.14 c -1.46,0 -2.64,-1.2 -2.64,-2.63 v -11.33 c 0,-1.49 1.18,-2.63 2.64,-2.63 h 11.75 c 1.45,0 2.64,-1.2 2.64,-2.69 v -14.07 h -6.07 c -1.77,0 -3.2,-1.43 -3.2,-3.2 v -14.64 c 0,-1.78 1.43,-3.26 3.2,-3.26 h 46.5 l -65.35,-324.54 c -67.69,7.6 -153.75,14.81 -252.22,21.67 l -78.47,125.27 c -3.74,5.94 -12.91,0.62 -9.73,-5.55 0,0 35.37,-69.1 60.31,-117.83 -373.96,25.06 -909.49,44.62 -1290.56,56.51 0.52,1.32 1.75,2.35 3.18,2.35 9.08,0 17.22,5.6 20.41,14.12 l 85.15,226.97 c 2.96,7.89 -2.87,16.3 -11.3,16.3 H 3359.5 c -15.71,0 -30.53,-7.27 -40.15,-19.68 l -79.42,-102.61 h -268.32 c -1.96,0 -3.77,0.97 -4.82,2.63 -1.28,2 -3.46,3.32 -6.03,3.32 h -55.62 c -4.07,0 -7.36,-3.26 -7.36,-7.32 v -22.6 c 0,-4.06 3.29,-7.38 7.36,-7.38 h 55.62 c 2.57,0 4.75,1.32 6.03,3.32 1.05,1.66 2.86,2.63 4.82,2.63 h 248.67 l -47.36,-61.14 c -10.11,-13.1 -7.34,-30.03 2.88,-40.04 -33.36,0.86 -58.38,1.49 -73.08,1.89 -2.67,0 -5.09,-0.92 -6.96,-2.75 -1.88,-1.83 -2.92,-4.29 -2.92,-6.92 v -19.62 l -1775.76,97.47 v 49.07 c 0,6.92 -5.38,12.64 -12.28,13.1 l -4.62,0.29 -98.19,155.23 c -4.12,6.52 -14.17,0.75 -10.71,-6.06 0.59,-1.03 48.35,-95.58 74.44,-147.06 l -85.99,5.32 c -7.53,0.46 -13.89,-5.54 -13.89,-13.1 v -48.5 l -46.26,2.57 -197.085,276.67 c -1.958,2.77 -3.01,6.06 -3.01,9.43 v 177.57 c 1.935,0.34 3.432,1.95 3.432,3.98 v 45.95 c 0,2.27 -1.835,4.11 -4.107,4.11 h -16.873 c -2.263,0 -4.107,-1.84 -4.107,-4.11 v -45.95 c 0,-2.03 1.499,-3.64 3.432,-3.98 v -176.56 h -17.068 c -2.732,0 -4.946,2.22 -4.946,4.95 v 10.83 c 0.972,0.65 1.727,1.58 1.727,2.83 v 19.88 c 0,1.99 -1.62,3.6 -3.609,3.6 h -14.46 c -1.991,0 -3.604,-1.61 -3.604,-3.6 v -19.88 c 0,-1.25 0.749,-2.18 1.723,-2.83 v -30.11 c 0,-2.12 1.749,-3.89 3.901,-3.89 h 36.336 v -258.07 c -1.159,-1.21 -1.419,-3.21 0.092,-4.52 l 467.766,-407.14 -26.48,-35.86 c -2.59,-3.49 -3.99,-7.72 -3.99,-12.13 v -16.07 c 0,-4.29 3.47,-7.72 7.75,-7.72 h 105.22 l 619.25,-538.97 c 298.5,-259.79 681.42,-401.93 1077.13,-399.81 l 10343.4,55.25 c 5.9,0.06 11.1,3.77 13.1,9.27 l 32.6,92.54 984.2,-44.33 c 1.9,-0.11 3.4,-1.66 3.7,-3.6 2,-13.79 13.5,-24.65 27.9,-25.34 l 254.8,-12.35 c 8.5,-0.46 13.6,-9.78 9.3,-17.22 l -22,-37.58 c -3.3,-5.55 -1.8,-12.7 3.4,-16.47 l 0.5,-0.4 c 3.7,-2.69 5.6,-7.09 5.1,-11.67 -0.9,-9.09 0.1,-24.08 15.3,-26.6 13.4,-2.23 22.9,4.06 28.3,9.33 3.6,3.48 9.2,3.83 13.2,0.68 6.5,-5.32 15.6,-14.58 21.8,-28.77 3.8,-8.52 15,-10.75 20.9,-3.54 l 0.1,0.17 c 6.6,7.78 7.8,18.64 3.4,27.68 l -10.5,21.16 c -9.9,20.08 -10.4,43.53 -1.2,63.95 l 2.6,5.78 c 2.4,5.32 7.5,8.75 13.3,9.26 34.9,2.92 100.9,24.83 102,52.34 1.1,26.37 -57.7,49.19 -93,55.54 -5.8,1.03 -10.3,5.32 -12,10.92 -9.6,31.86 -9.1,68.98 3.5,99.07 l 9.3,22.31 c 4.2,9.89 -3.1,20.87 -13.8,20.87 h -11.8 c -6.2,0 -11.7,-3.77 -14,-9.55 l -14.3,-36.2 c -2.8,-7.21 -9.8,-11.96 -17.6,-11.96 h -25.3 c -13.7,0 -24.8,-11.09 -24.8,-24.82 v -18.53 c 0,-8.18 6.9,-13.56 15.1,-13.85 4.7,-0.17 7.7,-4.92 6,-9.26 l -1.8,-4.69 c -4.3,-10.75 -15,-17.62 -26.5,-17.05 l -26.5,1.26 c -4,0.23 -7.3,3.61 -7.3,7.72 v 209.69 c 146,8.41 309.1,17.1 490.7,25.97 3.7,0.22 7,-2.4 7.7,-6.12 l 74.9,-442.14 c 2.7,-16.25 16.8,-28.09 33.3,-28.09 h 157.5 c 15.5,0 29,10.53 32.7,25.57 l 116.6,465.02 c 0.8,3.2 3.5,5.43 6.8,5.6 103.2,4.47 211.2,8.98 324.4,13.5 11,0.4 20.5,7.84 23.6,18.36 l 181.3,617.97 c 1.2,4.11 -0.6,8.06 -3.9,10.23 l 48,254.02 h 43.7 c 2.4,0 4.3,1.94 4.3,4.29 v 38.44 c 0,3.08 -2.5,5.6 -5.6,5.6" /></g><g
         transform="scale(1.12494)"
         id="g22"><path
           id="path24"
           style="fill:#ffffff;fill-opacity:1;fill-rule:nonzero;stroke:none"
           d="m 16289.1,8154.94 h -209.9 c -6,0 -10.9,4.87 -10.9,10.87 v 237.04 c 0,6 4.9,10.87 10.9,10.87 h 209.9 c 6,0 10.9,-4.87 10.9,-10.87 v -237.04 c 0,-6 -4.9,-10.87 -10.9,-10.87" /></g><g
         transform="scale(1.15395)"
         id="g26"><path
           id="path28"
           style="fill:#ffffff;fill-opacity:1;fill-rule:nonzero;stroke:none"
           d="m 16289.3,7949.91 h -204.6 c -5.8,0 -10.5,4.75 -10.5,10.6 v 231.08 c 0,5.85 4.7,10.6 10.5,10.6 h 204.6 c 5.9,0 10.7,-4.75 10.7,-10.6 v -231.08 c 0,-5.85 -4.8,-10.6 -10.7,-10.6" /></g><g
         transform="scale(1.15395)"
         id="g30"><path
           id="path32"
           style="fill:#ffffff;fill-opacity:1;fill-rule:nonzero;stroke:none"
           d="m 16289.3,8293.62 h -204.6 c -5.8,0 -10.5,4.75 -10.5,10.61 v 110.63 c 0,5.85 4.7,10.59 10.5,10.59 h 204.6 c 5.9,0 10.7,-4.74 10.7,-10.59 v -110.63 c 0,-5.86 -4.8,-10.61 -10.7,-10.61" /></g><g
         transform="scale(1.19102)"
         id="g34"><path
           id="path36"
           style="fill:#ffffff;fill-opacity:1;fill-rule:nonzero;stroke:none"
           d="m 16290.2,7394.7 h -165.3 c -5.5,0 -9.9,4.4 -9.9,9.83 v 225.87 c 0,5.43 4.4,9.83 9.9,9.83 h 165.3 c 5.4,0 9.8,-4.4 9.8,-9.83 v -225.87 c 0,-5.43 -4.4,-9.83 -9.8,-9.83" /></g><g
         transform="scale(1.06177)"
         id="g38"><path
           id="path40"
           style="fill:#ffffff;fill-opacity:1;fill-rule:nonzero;stroke:none"
           d="m 16289.8,8188.76 h -187.2 c -5.7,0 -10.2,4.53 -10.2,10.11 v 287.87 c 0,5.59 4.5,10.12 10.2,10.12 h 187.2 c 5.7,0 10.2,-4.53 10.2,-10.12 v -287.87 c 0,-5.58 -4.5,-10.11 -10.2,-10.11" /></g><g
         transform="scale(1.07918)"
         id="g42"><path
           id="path44"
           style="fill:#ffffff;fill-opacity:1;fill-rule:nonzero;stroke:none"
           d="m 16290,8056.6 h -184.2 c -5.6,0 -10,4.45 -10,9.95 v 283.22 c 0,5.5 4.4,9.95 10,9.95 h 184.2 c 5.6,0 10,-4.45 10,-9.95 v -283.22 c 0,-5.5 -4.4,-9.95 -10,-9.95" /></g><g
         transform="scale(1.0966)"
         id="g46"><path
           id="path48"
           style="fill:#ffffff;fill-opacity:1;fill-rule:nonzero;stroke:none"
           d="m 16290.2,7928.63 h -181.3 c -5.4,0 -9.9,4.39 -9.9,9.8 v 278.72 c 0,5.41 4.5,9.8 9.9,9.8 h 181.3 c 5.4,0 9.8,-4.39 9.8,-9.8 v -278.72 c 0,-5.41 -4.4,-9.8 -9.8,-9.8" /></g><g
         transform="scale(1.11402)"
         id="g50"><path
           id="path52"
           style="fill:#ffffff;fill-opacity:1;fill-rule:nonzero;stroke:none"
           d="m 16290.4,7804.67 h -178.5 c -5.3,0 -9.7,4.32 -9.7,9.64 v 274.37 c 0,5.33 4.4,9.64 9.7,9.64 h 178.5 c 5.3,0 9.6,-4.31 9.6,-9.64 v -274.37 c 0,-5.32 -4.3,-9.64 -9.6,-9.64" /></g><g
         transform="scale(1.13144)"
         id="g54"><path
           id="path56"
           style="fill:#ffffff;fill-opacity:1;fill-rule:nonzero;stroke:none"
           d="m 16290.5,7684.53 h -175.8 c -5.2,0 -9.4,4.25 -9.4,9.49 v 270.15 c 0,5.24 4.2,9.49 9.4,9.49 h 175.8 c 5.3,0 9.5,-4.25 9.5,-9.49 v -270.15 c 0,-5.24 -4.2,-9.49 -9.5,-9.49" /></g><g
         transform="scale(1.14885)"
         id="g58"><path
           id="path60"
           style="fill:#ffffff;fill-opacity:1;fill-rule:nonzero;stroke:none"
           d="m 16290.7,7568.03 h -173.1 c -5.2,0 -9.4,4.18 -9.4,9.35 v 266.05 c 0,5.16 4.2,9.34 9.4,9.34 h 173.1 c 5.1,0 9.3,-4.18 9.3,-9.34 v -266.05 c 0,-5.17 -4.2,-9.35 -9.3,-9.35" /></g><g
         transform="scale(1.03572)"
         id="g62"><path
           id="path64"
           style="fill:#ffffff;fill-opacity:1;fill-rule:nonzero;stroke:none"
           d="m 16290.4,7773.64 h -190.7 c -5.4,0 -9.6,4.25 -9.6,9.56 v 536.91 c 0,5.27 4.2,9.55 9.6,9.55 h 190.7 c 5.3,0 9.6,-4.28 9.6,-9.55 V 7783.2 c 0,-5.31 -4.3,-9.56 -9.6,-9.56" /></g><path
         id="path66"
         style="fill:#ffffff;fill-opacity:1;fill-rule:nonzero;stroke:none"
         d="m 13743.1,8146.6 h -103.5 c -6.5,0 -11.8,5.3 -11.8,11.8 v 259.9 c 0,6.5 5.3,11.8 11.8,11.8 h 103.5 c 6.5,0 11.8,-5.3 11.8,-11.8 v -259.9 c 0,-6.5 -5.3,-11.8 -11.8,-11.8" /><path
         id="path68"
         style="fill:#ffffff;fill-opacity:1;fill-rule:nonzero;stroke:none"
         d="m 13917.3,8146.6 h -103.5 c -6.6,0 -11.9,5.3 -11.9,11.8 v 259.9 c 0,6.5 5.3,11.8 11.9,11.8 h 103.5 c 6.5,0 11.8,-5.3 11.8,-11.8 v -259.9 c 0,-6.5 -5.3,-11.8 -11.8,-11.8" /><path
         id="path70"
         style="fill:#ffffff;fill-opacity:1;fill-rule:nonzero;stroke:none"
         d="m 9412.07,8751.75 h -214.74 c -6.46,0 -11.7,5.24 -11.7,11.7 v 146.95 c 0,6.46 5.24,11.7 11.7,11.7 h 214.74 c 6.46,0 11.7,-5.24 11.7,-11.7 v -146.95 c 0,-6.46 -5.24,-11.7 -11.7,-11.7" /><path
         id="path72"
         style="fill:#ffffff;fill-opacity:1;fill-rule:nonzero;stroke:none"
         d="M 9693.44,8751.75 H 9478.7 c -6.46,0 -11.7,5.24 -11.7,11.7 v 146.95 c 0,6.46 5.24,11.7 11.7,11.7 h 214.74 c 6.46,0 11.7,-5.24 11.7,-11.7 v -146.95 c 0,-6.46 -5.24,-11.7 -11.7,-11.7" /><path
         id="path74"
         style="fill:#ffffff;fill-opacity:1;fill-rule:nonzero;stroke:none"
         d="m 9989.64,8751.75 h -119.82 c -6.46,0 -11.7,5.24 -11.7,11.7 v 146.95 c 0,6.46 5.24,11.7 11.7,11.7 h 119.82 c 6.46,0 11.66,-5.24 11.66,-11.7 v -146.95 c 0,-6.46 -5.2,-11.7 -11.66,-11.7" /><path
         id="path76"
         style="fill:#ffffff;fill-opacity:1;fill-rule:nonzero;stroke:none"
         d="m 10399.8,8751.75 h -91.8 c -6.5,0 -11.7,5.24 -11.7,11.7 v 146.95 c 0,6.46 5.2,11.7 11.7,11.7 h 91.8 c 6.5,0 11.7,-5.24 11.7,-11.7 v -146.95 c 0,-6.46 -5.2,-11.7 -11.7,-11.7" /><path
         id="path78"
         style="fill:#ffffff;fill-opacity:1;fill-rule:nonzero;stroke:none"
         d="m 12320.6,10076.8 h -173.5 c -6.5,0 -11.8,5.3 -11.8,11.8 v 166.7 c 0,6.5 5.3,11.8 11.8,11.8 h 173.5 c 6.5,0 11.8,-5.3 11.8,-11.8 v -166.7 c 0,-6.5 -5.3,-11.8 -11.8,-11.8" /><g
         transform="scale(1.35657)"
         id="g80"><path
           id="path82"
           style="fill:#ffffff;fill-opacity:1;fill-rule:nonzero;stroke:none"
           d="m 16294,6243.83 h -88.3 c -3.3,0 -6,2.66 -6,5.97 v 104.68 c 0,3.32 2.7,6 6,6 h 88.3 c 3.3,0 6,-2.68 6,-6 V 6249.8 c 0,-3.31 -2.7,-5.97 -6,-5.97" /></g><g
         transform="scale(1.3784)"
         id="g84"><path
           id="path86"
           style="fill:#ffffff;fill-opacity:1;fill-rule:nonzero;stroke:none"
           d="m 16294.1,6144.93 h -86.9 c -3.3,0 -5.9,2.61 -5.9,5.88 v 103.01 c 0,3.27 2.6,5.91 5.9,5.91 h 86.9 c 3.3,0 5.9,-2.64 5.9,-5.91 v -103.01 c 0,-3.27 -2.6,-5.88 -5.9,-5.88" /></g><path
         id="path88"
         style="fill:#ffffff;fill-opacity:1;fill-rule:nonzero;stroke:none"
         d="m 12425.7,9390.24 h -259.5 c -8.4,0 -15.5,6.11 -16.8,14.4 l -82.2,530.63 c -1.6,10.3 6.4,19.6 16.8,19.6 h 259.5 c 8.3,0 15.5,-6.11 16.8,-14.39 l 82.2,-530.63 c 1.6,-10.31 -6.4,-19.61 -16.8,-19.61" /></g></g></svg>